<svg xmlns="http://www.w3.org/2000/svg" viewBox="24.4 71.98 1038.14 145.31" fill="currentColor" role="img" aria-label="NEXALYZE">
  <g transform="translate(16.276473, 213.297109)"><path d="M 134.953125 0 L 101.515625 0 L 45.578125 -84.6875 L 45.578125 0 L 12.125 0 L 12.125 -137.3125 L 45.578125 -137.3125 L 101.515625 -52.21875 L 101.515625 -137.3125 L 134.953125 -137.3125 Z M 134.953125 0 "/></g>
  <g transform="translate(173.066622, 213.297109)"><path d="M 45.578125 -110.515625 L 45.578125 -82.734375 L 90.359375 -82.734375 L 90.359375 -56.921875 L 45.578125 -56.921875 L 45.578125 -26.796875 L 96.234375 -26.796875 L 96.234375 0 L 12.125 0 L 12.125 -137.3125 L 96.234375 -137.3125 L 96.234375 -110.515625 Z M 45.578125 -110.515625 "/></g>
  <g transform="translate(288.608309, 213.297109)"><path d="M 96.234375 0 L 68.265625 -42.046875 L 43.625 0 L 5.671875 0 L 49.6875 -69.828125 L 4.6875 -137.3125 L 43.625 -137.3125 L 71.203125 -95.84375 L 95.453125 -137.3125 L 133.390625 -137.3125 L 89.78125 -68.0625 L 135.15625 0 Z M 96.234375 0 "/></g>
  <g transform="translate(438.165304, 213.297109)"><path d="M 97.59375 -24.25 L 46.359375 -24.25 L 38.140625 0 L 3.125 0 L 52.8125 -137.3125 L 91.53125 -137.3125 L 141.21875 0 L 105.8125 0 Z M 89 -50.078125 L 71.984375 -100.34375 L 55.15625 -50.078125 Z M 89 -50.078125 "/></g>
  <g transform="translate(592.023135, 213.297109)"><path d="M 45.578125 -25.8125 L 89.390625 -25.8125 L 89.390625 0 L 12.125 0 L 12.125 -137.3125 L 45.578125 -137.3125 Z M 45.578125 -25.8125 "/></g>
  <g transform="translate(695.053431, 213.297109)"><path d="M 129.875 -137.3125 L 82.34375 -45.375 L 82.34375 0 L 48.90625 0 L 48.90625 -45.375 L 1.375 -137.3125 L 39.3125 -137.3125 L 65.921875 -79.796875 L 92.3125 -137.3125 Z M 129.875 -137.3125 "/></g>
  <g transform="translate(836.008881, 213.297109)"><path d="M 47.71875 -27.390625 L 106.796875 -27.390625 L 106.796875 0 L 9.78125 0 L 9.78125 -25.421875 L 68.453125 -109.921875 L 9.78125 -109.921875 L 9.78125 -137.3125 L 106.796875 -137.3125 L 106.796875 -111.875 Z M 47.71875 -27.390625 "/></g>
  <g transform="translate(962.302588, 213.297109)"><path d="M 45.578125 -110.515625 L 45.578125 -82.734375 L 90.359375 -82.734375 L 90.359375 -56.921875 L 45.578125 -56.921875 L 45.578125 -26.796875 L 96.234375 -26.796875 L 96.234375 0 L 12.125 0 L 12.125 -137.3125 L 96.234375 -137.3125 L 96.234375 -110.515625 Z M 45.578125 -110.515625 "/></g>
</svg>
